<?xml version="1.0" standalone="no"?>
<!DOCTYPE svg PUBLIC "-//W3C//DTD SVG 20010904//EN"
 "http://www.w3.org/TR/2001/REC-SVG-20010904/DTD/svg10.dtd">
<svg version="1.0" xmlns="http://www.w3.org/2000/svg"
 width="225.000000pt" height="225.000000pt" viewBox="0 0 225.000000 225.000000"
 preserveAspectRatio="xMidYMid meet">
<metadata>
Created by potrace 1.14, written by Peter Selinger 2001-2017
</metadata>
<g transform="translate(0.000000,225.000000) scale(0.100000,-0.100000)"
fill="#000000" stroke="none">
<path d="M965 2242 c-2 -2 -19 -6 -37 -9 -53 -6 -63 -9 -76 -17 -6 -4 -12 -4
-12 0 0 3 -8 0 -17 -7 -11 -9 -14 -10 -9 -2 5 9 2 11 -8 7 -9 -3 -16 -10 -16
-16 0 -5 -4 -7 -9 -3 -5 3 -12 1 -15 -4 -4 -5 -14 -8 -24 -6 -9 1 -25 -4 -34
-13 -10 -8 -18 -12 -18 -7 0 4 -7 2 -15 -5 -8 -7 -15 -9 -15 -6 0 4 -7 0 -16
-8 -8 -9 -19 -14 -23 -11 -5 2 -16 -4 -26 -15 -9 -10 -23 -16 -30 -13 -8 2
-20 -5 -27 -16 -7 -12 -21 -21 -30 -21 -10 0 -32 -13 -50 -30 -17 -16 -35 -30
-40 -30 -5 0 -6 -4 -3 -10 3 -5 -3 -10 -15 -10 -12 0 -19 -3 -17 -7 4 -8 -37
-54 -48 -53 -3 0 -5 -2 -5 -5 1 -11 -25 -33 -32 -28 -5 2 -8 -2 -8 -9 0 -7
-16 -29 -35 -47 -19 -19 -37 -43 -41 -53 -3 -10 -10 -16 -15 -13 -5 4 -9 -2
-9 -12 -1 -23 -25 -55 -34 -46 -4 4 -4 0 0 -10 4 -11 0 -19 -9 -23 -9 -3 -13
-12 -10 -21 4 -9 2 -14 -3 -11 -5 3 -16 -9 -25 -28 -9 -18 -11 -31 -5 -27 6 4
3 -2 -6 -13 -9 -10 -17 -23 -18 -29 -2 -5 -7 -21 -13 -35 -6 -14 -12 -36 -13
-50 -2 -14 -8 -26 -13 -28 -5 -2 -7 -15 -5 -28 3 -14 1 -23 -4 -20 -4 2 -9 -5
-10 -17 -1 -12 -4 -38 -7 -57 -9 -51 -9 -348 0 -395 4 -22 8 -48 8 -57 1 -9 5
-14 9 -11 5 2 7 -7 4 -21 -3 -14 0 -26 5 -26 6 0 7 -4 4 -10 -3 -5 -2 -10 4
-10 5 0 8 -9 6 -20 -2 -11 1 -20 6 -20 6 0 7 -5 4 -10 -3 -6 1 -17 9 -25 8 -9
13 -22 10 -30 -4 -8 1 -18 10 -21 9 -3 13 -10 10 -15 -3 -5 0 -9 6 -9 6 0 9
-4 6 -9 -3 -5 4 -21 16 -37 13 -15 16 -24 8 -19 -8 4 -3 -5 11 -21 15 -16 24
-35 21 -43 -3 -8 0 -11 7 -7 6 4 11 1 11 -8 0 -9 5 -16 11 -16 5 0 8 -4 5 -9
-3 -5 1 -12 10 -15 8 -3 13 -10 9 -15 -3 -5 4 -12 15 -16 11 -4 18 -11 15 -16
-4 -5 -1 -9 4 -9 6 0 11 -6 11 -14 0 -8 5 -18 12 -22 7 -5 8 -3 3 6 -5 9 -4
11 3 6 7 -4 12 -14 12 -22 0 -8 4 -13 9 -9 5 3 12 -4 16 -15 4 -11 11 -18 16
-15 5 4 9 2 9 -2 0 -5 7 -18 16 -29 8 -10 12 -12 8 -4 -4 8 3 5 15 -7 12 -13
26 -23 32 -23 6 0 7 -4 4 -10 -3 -5 1 -10 9 -10 9 0 16 -4 16 -9 0 -5 8 -11
18 -15 9 -3 35 -19 57 -35 22 -16 43 -27 47 -24 5 2 11 -3 14 -11 3 -9 10 -13
15 -10 5 3 9 0 9 -6 0 -7 6 -10 14 -7 8 3 22 -2 32 -11 11 -9 28 -19 39 -20
11 -2 22 -8 23 -13 2 -5 8 -6 13 -3 6 3 21 -2 36 -11 15 -10 22 -12 18 -4 -5
7 1 6 14 -4 13 -8 29 -13 36 -11 7 3 16 0 20 -5 3 -6 11 -9 16 -6 5 4 15 3 22
-2 18 -11 57 -14 227 -14 172 0 230 3 230 12 0 4 10 7 23 8 43 1 57 4 57 14 0
6 3 7 7 4 3 -4 13 -1 21 6 13 10 14 9 8 -2 -6 -9 -1 -8 16 3 14 9 28 13 31 9
4 -3 7 -1 7 5 0 6 7 9 15 6 8 -4 15 -1 15 5 0 6 3 10 8 9 4 -1 17 3 30 10 12
7 22 9 22 5 0 -4 7 2 16 13 8 10 12 12 8 4 -4 -8 4 -4 19 9 14 12 30 20 36 16
6 -3 11 1 11 10 0 9 4 14 9 10 5 -3 12 -1 16 5 4 6 10 8 15 5 5 -3 12 0 16 6
5 8 3 9 -6 4 -9 -6 -11 -4 -6 4 5 7 15 10 24 6 9 -3 13 -3 10 1 -8 8 34 44 51
44 6 0 11 5 11 10 0 6 6 10 14 10 8 0 18 5 22 12 5 7 2 8 -7 3 -8 -4 -5 1 6
12 11 11 23 19 28 16 4 -2 7 3 7 12 0 9 5 13 10 10 6 -3 10 1 10 10 0 9 5 13
10 10 6 -3 10 -1 10 6 0 6 11 22 24 34 14 13 22 26 19 29 -4 3 1 6 11 6 9 0
14 4 11 10 -3 5 -2 10 4 10 5 0 13 9 16 20 4 11 11 18 16 15 5 -4 9 -1 9 6 0
7 8 21 18 32 12 15 13 19 2 13 -11 -6 -11 -4 1 6 9 7 19 23 23 36 4 12 12 22
17 22 6 0 7 5 4 10 -3 6 -2 10 2 10 5 0 9 10 10 21 1 12 9 29 17 38 9 10 13
21 9 24 -3 4 -2 7 4 7 5 0 10 7 11 15 1 8 3 22 4 30 1 8 6 15 11 15 5 0 7 7 3
15 -3 8 0 15 6 15 6 0 9 3 5 6 -3 4 0 22 8 41 8 18 12 40 9 48 -4 8 -2 15 3
15 11 0 12 18 16 228 2 89 1 162 -2 162 -6 0 -10 27 -14 78 0 12 -4 22 -7 22
-3 0 -7 9 -8 20 -4 43 -6 50 -14 50 -4 0 -7 3 -7 8 1 4 1 9 -1 12 -1 3 -3 16
-6 29 -2 14 -9 30 -15 38 -6 7 -8 13 -4 13 4 0 2 7 -5 15 -7 8 -9 15 -4 15 5
0 3 4 -5 9 -8 5 -16 20 -18 33 -2 13 -8 25 -13 26 -6 2 -10 10 -10 18 0 8 -5
14 -11 14 -5 0 -7 5 -4 10 3 6 1 10 -5 10 -6 0 -8 5 -5 10 3 6 1 10 -5 10 -6
0 -8 5 -5 10 3 5 -1 10 -10 10 -9 0 -13 5 -10 10 3 6 1 10 -5 10 -6 0 -8 5 -5
10 3 6 -1 10 -10 10 -9 0 -13 5 -10 10 3 6 1 10 -5 10 -6 0 -8 5 -5 10 3 6 1
10 -4 10 -6 0 -24 18 -40 40 -15 21 -31 36 -35 33 -3 -3 -6 -2 -6 3 0 6 -7 19
-16 30 -8 10 -13 12 -9 4 4 -8 -3 -4 -14 10 -11 14 -21 28 -21 32 0 5 -3 7 -7
7 -20 -3 -34 2 -29 10 3 5 -7 15 -23 22 -15 8 -28 18 -29 23 -1 6 -9 11 -19
12 -10 2 -23 11 -30 20 -7 10 -13 14 -13 9 0 -5 -12 2 -27 16 -14 13 -23 17
-19 9 5 -9 2 -8 -7 2 -8 10 -17 14 -21 10 -4 -4 -12 1 -17 11 -6 9 -14 15 -19
12 -5 -3 -11 -1 -15 5 -4 6 -11 8 -16 5 -5 -4 -9 -1 -9 5 0 6 -4 9 -9 6 -5 -3
-14 1 -21 10 -7 8 -19 13 -27 10 -7 -3 -13 -1 -13 3 0 5 -10 7 -22 3 -14 -3
-19 -1 -14 6 4 6 -1 11 -11 11 -37 1 -53 5 -53 11 0 4 -11 5 -25 2 -14 -2 -25
0 -25 5 0 5 -12 10 -27 12 -63 4 -353 7 -358 3z m78 -190 c-1 -18 3 -32 9 -32
5 0 8 -7 5 -14 -4 -9 2 -17 14 -21 10 -4 17 -10 15 -14 -4 -6 60 -7 74 -1 3 1
9 2 13 1 5 -1 6 3 2 9 -3 5 1 10 10 10 9 0 13 5 10 10 -3 6 -2 10 3 10 5 0 8
17 6 38 -3 37 -2 37 37 37 21 1 39 -2 39 -6 0 -3 14 -5 30 -4 17 1 30 -2 30
-7 0 -5 5 -6 10 -3 6 4 22 -1 37 -10 14 -9 22 -12 18 -5 -5 9 -1 8 16 -1 13
-7 33 -14 44 -16 11 -2 22 -8 23 -13 2 -6 7 -8 12 -5 5 3 14 -1 22 -8 14 -15
20 -17 44 -17 9 0 12 -5 8 -11 -4 -7 -1 -10 7 -7 8 3 20 -2 27 -11 11 -13 12
-13 7 -1 -4 10 -2 9 8 -2 8 -10 18 -18 23 -18 5 0 34 -20 64 -45 30 -25 59
-45 63 -45 5 0 5 -4 2 -10 -3 -5 1 -10 9 -10 8 0 18 -5 22 -12 5 -7 3 -8 -6
-3 -9 5 -11 4 -6 -3 4 -7 13 -12 21 -12 8 0 17 -5 21 -12 5 -7 3 -8 -6 -3 -9
5 -11 4 -6 -3 4 -7 14 -12 22 -12 8 0 12 -4 9 -10 -3 -5 -2 -10 4 -10 5 0 13
-9 16 -20 4 -11 11 -18 16 -15 5 4 9 0 9 -8 0 -8 12 -27 28 -42 15 -16 20 -25
12 -21 -9 5 -8 2 2 -7 10 -8 15 -17 11 -20 -3 -4 0 -7 7 -7 7 0 10 -3 7 -7 -4
-3 1 -12 11 -20 9 -8 11 -11 3 -7 -8 4 -1 -10 15 -31 16 -22 22 -35 15 -30 -9
5 -7 -3 6 -21 11 -16 18 -35 16 -41 -3 -7 0 -13 7 -13 6 0 9 -4 5 -9 -3 -5 -1
-12 5 -16 6 -4 8 -11 5 -16 -4 -5 -3 -15 2 -21 11 -18 21 -70 27 -139 3 -34 1
-37 -23 -34 -14 2 -32 -2 -40 -9 -12 -9 -13 -8 -7 4 4 8 -1 5 -12 -7 -11 -12
-22 -19 -26 -16 -6 7 -9 -10 -8 -62 0 -43 1 -45 15 -42 6 1 11 -4 9 -11 -1 -8
2 -11 7 -8 5 4 12 2 15 -3 3 -5 21 -7 39 -6 33 4 33 3 31 -33 -1 -20 -3 -37
-4 -37 -1 0 -3 -14 -5 -32 -2 -17 -9 -41 -15 -53 -10 -18 -10 -21 2 -14 10 6
11 5 1 -8 -7 -8 -10 -18 -6 -21 3 -4 1 -7 -5 -7 -7 0 -11 -3 -11 -7 4 -19 -15
-73 -24 -73 -6 0 -7 -3 -4 -7 4 -3 -1 -15 -10 -26 -13 -15 -14 -18 -3 -12 9 5
8 0 -4 -13 -11 -12 -15 -22 -11 -22 5 0 0 -7 -11 -16 -10 -8 -12 -13 -4 -9 8
4 4 -3 -10 -15 -14 -12 -19 -19 -12 -15 18 10 -56 -93 -75 -103 -8 -5 -14 -12
-14 -15 3 -21 0 -28 -9 -22 -5 3 -10 0 -10 -8 0 -8 -8 -21 -17 -28 -17 -13
-17 -12 -4 6 9 12 5 11 -11 -5 -14 -14 -24 -27 -22 -29 5 -5 -23 -31 -35 -31
-5 0 -18 -11 -29 -25 -11 -13 -22 -22 -25 -18 -4 3 -9 -2 -13 -11 -3 -9 -10
-14 -14 -11 -4 3 -20 -8 -36 -23 -15 -15 -24 -21 -20 -14 7 11 4 12 -13 3 -11
-7 -21 -16 -21 -22 0 -6 -4 -7 -10 -4 -5 3 -10 1 -10 -5 0 -6 -5 -8 -10 -5 -6
3 -17 -1 -26 -9 -9 -9 -20 -14 -25 -11 -5 4 -9 1 -9 -5 0 -6 -4 -9 -9 -5 -5 3
-12 1 -16 -5 -4 -6 -11 -8 -16 -5 -5 4 -9 2 -9 -4 0 -6 -7 -8 -15 -5 -8 4 -15
1 -15 -4 0 -6 -8 -11 -17 -11 -18 0 -58 -8 -58 -11 0 -3 -55 -10 -95 -13 -32
-2 -35 0 -36 28 -1 29 -22 91 -24 70 0 -5 -5 -3 -10 5 -17 27 -120 14 -103
-13 2 -4 -2 -10 -10 -13 -9 -3 -13 -18 -12 -43 l2 -39 -41 3 c-45 4 -90 12
-121 22 -11 4 -24 8 -30 9 -31 6 -41 10 -45 16 -3 4 -15 9 -25 11 -31 6 -58
19 -79 36 -16 13 -18 13 -11 1 5 -8 -15 2 -44 23 -29 21 -50 33 -46 25 3 -7
-2 -3 -13 9 -11 12 -22 19 -26 16 -3 -4 -6 -1 -6 6 0 7 -5 9 -10 6 -6 -3 -10
1 -10 10 0 9 -5 13 -10 10 -6 -3 -10 -1 -10 4 0 6 -7 11 -16 11 -8 0 -12 5 -9
10 3 6 3 10 -2 10 -4 0 -19 10 -33 21 -14 11 -18 18 -10 14 8 -4 6 1 -4 9 -11
9 -24 16 -30 16 -5 0 -6 3 -3 6 3 4 -5 15 -18 26 -14 11 -25 25 -25 33 0 7 -7
15 -15 19 -8 3 -15 13 -15 21 0 9 -4 13 -10 10 -9 -6 -14 7 -7 21 1 3 -6 10
-16 15 -9 6 -17 17 -17 26 0 9 -10 28 -22 41 -13 14 -16 22 -8 18 8 -4 6 0 -4
8 -11 9 -16 16 -11 16 5 0 4 5 -3 12 -7 7 -12 20 -12 30 0 10 -4 18 -8 18 -5
0 -9 6 -10 13 -2 21 -8 41 -18 62 -6 11 -9 30 -8 43 0 12 -2 22 -7 22 -4 0 -8
8 -8 18 -1 9 -2 37 -3 62 -3 44 -2 45 27 46 28 1 91 22 70 24 -5 0 -3 4 5 10
8 5 15 23 15 41 1 44 -37 82 -85 83 -34 1 -35 2 -36 38 -1 21 3 38 7 38 4 0 6
9 4 20 -2 11 0 22 5 25 5 3 7 14 5 25 -2 11 -1 20 3 20 4 0 9 9 10 20 4 44 6
50 14 50 5 0 6 5 3 10 -3 6 -1 10 6 10 7 0 9 3 6 7 -4 3 -1 13 6 21 10 13 9
14 -3 7 -8 -4 -5 3 7 16 12 13 21 26 21 29 -2 13 14 50 23 50 5 0 8 3 7 8 -4
11 52 101 72 115 9 6 18 15 18 20 3 18 35 57 48 57 7 0 16 5 20 12 5 7 3 8 -6
3 -9 -5 -11 -4 -6 3 4 7 14 12 23 12 9 0 14 3 11 6 -8 7 25 42 35 37 4 -2 7 0
7 6 0 5 9 13 20 16 11 4 17 11 14 17 -5 7 -1 9 9 5 12 -4 17 -1 17 10 0 9 3
13 7 10 3 -4 17 3 30 15 13 12 23 18 23 14 0 -4 17 6 37 21 20 15 33 21 28 13
-4 -8 4 -4 18 9 15 14 27 21 27 17 0 -4 10 -1 23 6 12 7 28 11 35 10 6 -2 12
2 12 9 0 6 7 9 15 5 8 -3 15 -2 15 3 0 4 6 8 13 9 6 0 26 4 42 7 17 3 40 7 53
7 12 1 22 5 22 8 0 4 17 6 38 5 35 -1 37 -3 35 -33z"/>
<path d="M694 1848 c-3 -4 -10 -6 -15 -3 -5 4 -10 1 -10 -4 -2 -15 -6 -31 -9
-33 -6 -6 -6 -68 -1 -68 4 0 12 -14 20 -30 7 -17 25 -45 40 -63 14 -17 19 -27
11 -22 -8 4 -4 -4 9 -18 14 -15 21 -27 16 -27 -5 0 0 -7 11 -16 10 -8 12 -13
4 -9 -11 5 -10 2 2 -7 9 -8 18 -21 20 -29 2 -8 12 -22 22 -32 11 -9 16 -20 13
-23 -3 -4 4 -15 16 -26 12 -11 16 -16 9 -13 -11 6 -11 3 -1 -13 7 -12 17 -18
23 -15 5 4 7 -1 3 -10 -3 -10 -2 -17 3 -17 6 0 10 -7 10 -15 0 -8 3 -15 8 -15
4 0 13 -14 21 -30 7 -17 25 -45 40 -63 14 -17 19 -27 11 -22 -13 7 12 -29 31
-45 3 -3 9 -17 12 -32 4 -14 22 -41 39 -59 18 -18 26 -29 18 -24 -9 5 -12 5
-7 -1 5 -5 13 -10 18 -10 5 -1 11 -3 14 -4 17 -9 53 -4 69 9 11 9 16 10 12 4
-4 -7 -5 -13 -2 -13 2 0 11 12 18 28 11 21 13 90 12 312 -1 157 -3 286 -4 288
-1 1 -3 6 -4 11 0 5 -5 13 -10 18 -5 5 -6 2 -1 -6 5 -9 4 -12 -3 -7 -7 4 -12
13 -12 20 0 18 -71 15 -100 -5 -23 -15 -24 -21 -24 -137 -1 -74 -5 -122 -11
-122 -5 0 -3 -5 5 -10 9 -6 10 -10 3 -10 -13 0 -26 17 -29 38 -2 8 -11 20 -21
29 -10 8 -11 11 -3 7 8 -5 3 8 -12 28 -15 19 -24 38 -21 42 4 3 2 6 -4 6 -6 0
-18 12 -28 26 -11 18 -13 24 -4 19 8 -5 4 3 -9 17 -12 13 -19 28 -15 31 3 4 1
7 -5 7 -7 0 -12 7 -12 15 0 9 -7 18 -15 21 -8 4 -12 10 -9 15 3 5 0 9 -6 9 -6
0 -8 5 -5 10 3 6 2 10 -4 10 -5 0 -13 9 -16 20 -4 12 -16 30 -28 42 -12 11
-15 17 -7 13 12 -6 13 -5 3 5 -14 15 -91 21 -99 8z"/>
</g>
</svg>
